:FULLY-SPECIFIED
:FORCE-ALL-JOINTS-BE-3DOF
:DEGREES
340
root 7.99614 15.9781 -20.6592 8.25992 25.4894 4.30465
lfemur -20.166 23.2007 -13.1462
ltibia 50.9238 -0 0
lfoot -17.0276 11.424 -0.276145
ltoes -11.8574 0 0
rfemur -42.4112 -6.23916 7.33335
rtibia 51.9971 -0 0
rfoot 1.27421 -12.6411 -0.905719
rtoes 31.6329 -0 0
lowerback 5.43863 -0.634905 -1.92948
upperback 3.46171 -0.89239 -0.748468
thorax 0.575088 -0.459939 0.348701
lowerneck -4.96514 -9.15486 1.83716
upperneck -4.30424 -12.173 5.82424
head -0.194277 -6.125 1.41141
lclavicle -2.34069e-14 8.00956e-15 1.31147e-31
lhumerus -46.4748 -43.8728 108.296
lradius 59.3769 -0 0
lwrist 16.3424 0 0
lhand 4.81015 10.995 0.558157
lfingers 7.12502 -0 0
lthumb 30.1033 37.7219 0.295572
rclavicle -2.34069e-14 8.00956e-15 1.31147e-31
rhumerus -16.6946 14.8205 -68.0556
rradius 76.3443 -0 0
rwrist -1.53141 0 0
rhand -32.1514 -27.5592 0.459231
rfingers 7.12502 -0 0
rthumb -5.39365 -57.0498 0.45447
341
root 7.94194 15.9953 -20.5175 8.16759 24.1732 3.95312
lfemur -20.8823 23.2065 -13.0687
ltibia 51.7983 -0 0
lfoot -16.8439 10.9018 -0.291249
ltoes -10.9878 0 0
rfemur -41.9235 -6.13593 8.1149
rtibia 51.6983 -0 0
rfoot 0.559395 -12.2009 -0.955432
rtoes 31.142 -0 0
lowerback 5.42827 -0.58255 -1.77546
upperback 3.43589 -0.817215 -0.681426
thorax 0.553678 -0.421133 0.327439
lowerneck -5.07189 -8.90608 1.85874
upperneck -4.18475 -11.8536 5.70626
head -0.151616 -5.96152 1.37398
lclavicle -2.33572e-14 7.09321e-15 1.383e-31
lhumerus -46.175 -43.1871 107.795
lradius 59.3356 -0 0
lwrist 16.5054 0 0
lhand 3.98782 10.7591 0.588799
lfingers 7.12502 -0 0
lthumb 29.3158 37.5915 0.311786
rclavicle -2.33572e-14 7.09321e-15 1.383e-31
rhumerus -17.3947 14.8491 -68.9059
rradius 75.9278 -0 0
rwrist -1.23324 0 0
rhand -31.399 -27.3471 0.484416
rfingers 7.12502 -0 0
rthumb -4.66762 -56.8323 0.479386
342
root 7.88775 16.0125 -20.3758 8.08493 22.8565 3.60738
lfemur -21.5986 23.2132 -12.9913
ltibia 52.6727 -0 0
lfoot -16.6601 10.3796 -0.304677
ltoes -10.1182 0 0
rfemur -41.4345 -6.03932 8.89716
rtibia 51.3996 -0 0
rfoot -0.155794 -11.7601 -0.999649
rtoes 30.6511 -0 0
lowerback 5.41806 -0.530167 -1.62145
upperback 3.41015 -0.742009 -0.614418
thorax 0.532254 -0.382334 0.306162
lowerneck -5.17847 -8.65726 1.87985
upperneck -4.06606 -11.5339 5.5891
head -0.109075 -5.79802 1.33668
lclavicle -2.33075e-14 6.17687e-15 1.44659e-31
lhumerus -45.8866 -42.4994 107.305
lradius 59.2944 -0 0
lwrist 16.6684 0 0
lhand 3.16535 10.5229 0.616055
lfingers 7.12502 -0 0
lthumb 28.5283 37.4609 0.326206
rclavicle -2.33075e-14 6.17687e-15 1.44659e-31
rhumerus -18.0953 14.8676 -69.7566
rradius 75.5113 -0 0
rwrist -0.935073 0 0
rhand -30.6466 -27.1348 0.506814
rfingers 7.12502 -0 0
rthumb -3.9415 -56.6146 0.501544
343
root 7.83355 16.0297 -20.2341 8.01159 21.5394 3.26692
lfemur -22.315 23.2207 -12.9139
ltibia 53.5471 -0 0
lfoot -16.4762 9.85729 -0.31643
ltoes -9.24868 0 0
rfemur -40.9444 -5.94936 9.68009
rtibia 51.1009 -0 0
rfoot -0.87131 -11.3188 -1.03836
rtoes 30.1602 -0 0
lowerback 5.40798 -0.477756 -1.46746
upperback 3.3845 -0.666773 -0.547444
thorax 0.510816 -0.343544 0.284871
lowerneck -5.2849 -8.4084 1.90047
upperneck -3.94817 -11.2139 5.47275
head -0.066653 -5.63448 1.29951
lclavicle -2.32578e-14 5.26052e-15 1.50223e-31
lhumerus -45.6093 -41.8101 106.825
lradius 59.2532 -0 0
lwrist 16.8313 0 0
lhand 2.34278 10.2863 0.639917
lfingers 7.12502 -0 0
lthumb 27.7407 37.3301 0.338829
rclavicle -2.32578e-14 5.26052e-15 1.50223e-31
rhumerus -18.7961 14.876 -70.6075
rradius 75.0949 -0 0
rwrist -0.636904 0 0
rhand -29.8941 -26.9222 0.526422
rfingers 7.12502 -0 0
rthumb -3.2153 -56.3966 0.520941
344
root 7.77936 16.0469 -20.0923 7.94724 20.2219 2.93122
lfemur -23.0314 23.2292 -12.8367
ltibia 54.4216 -0 0
lfoot -16.2922 9.33496 -0.326506
ltoes -8.3791 0 0
rfemur -40.4531 -5.86607 10.4636
rtibia 50.8021 -0 0
rfoot -1.58711 -10.877 -1.07156
rtoes 29.6693 -0 0
lowerback 5.39805 -0.425319 -1.31347
upperback 3.35894 -0.591506 -0.480503
thorax 0.489363 -0.304761 0.263565
lowerneck -5.39116 -8.1595 1.92061
upperneck -3.83108 -10.8938 5.3572
head -0.0243495 -5.47093 1.26247
lclavicle -2.32081e-14 4.34417e-15 1.54991e-31
lhumerus -45.3425 -41.119 106.355
lradius 59.212 -0 0
lwrist 16.9943 0 0
lhand 1.52012 10.0494 0.66038
lfingers 7.12502 -0 0
lthumb 26.9531 37.1992 0.349654
rclavicle -2.32081e-14 4.34417e-15 1.54991e-31
rhumerus -19.4969 14.8744 -71.4584
rradius 74.6784 -0 0
rwrist -0.338734 0 0
rhand -29.1415 -26.7093 0.543235
rfingers 7.12502 -0 0
rthumb -2.48903 -56.1783 0.537573
345
root 7.72518 16.0642 -19.9506 7.89156 18.9041 2.59982
lfemur -23.7479 23.2385 -12.7596
ltibia 55.296 -0 0
lfoot -16.1081 8.8126 -0.334904
ltoes -7.50953 0 0
rfemur -39.9607 -5.78948 11.2478
rtibia 50.5034 -0 0
rfoot -2.30316 -10.4348 -1.09923
rtoes 29.1784 -0 0
lowerback 5.38826 -0.372856 -1.15949
upperback 3.33347 -0.516208 -0.413597
thorax 0.467896 -0.265986 0.242245
lowerneck -5.49727 -7.91057 1.94027
upperneck -3.71476 -10.5734 5.24243
head 0.0178365 -5.30734 1.22556
lclavicle -2.31584e-14 3.42782e-15 1.58966e-31
lhumerus -45.086 -40.4263 105.894
lradius 59.1708 -0 0
lwrist 17.1573 0 0
lhand 0.697369 9.81226 0.67744
lfingers 7.12502 -0 0
lthumb 26.1655 37.0681 0.358677
rclavicle -2.31584e-14 3.42782e-15 1.58966e-31
rhumerus -20.1977 14.8628 -72.3093
rradius 74.262 -0 0
rwrist -0.0405641 0 0
rhand -28.3889 -26.4962 0.557251
rfingers 7.12502 -0 0
rthumb -1.7627 -55.9599 0.551438
346
root 7.67099 16.0814 -19.8089 7.8443 17.5861 2.27227
lfemur -24.4643 23.2487 -12.6826
ltibia 56.1704 -0 0
lfoot -15.9239 8.29022 -0.341624
ltoes -6.63996 0 0
rfemur -39.4675 -5.7196 12.0324
rtibia 50.2046 -0 0
rfoot -3.0194 -9.99233 -1.12138
rtoes 28.6875 -0 0
lowerback 5.37861 -0.320366 -1.00552
upperback 3.30808 -0.44088 -0.346724
thorax 0.446414 -0.227219 0.22091
lowerneck -5.60323 -7.6616 1.95946
upperneck -3.59922 -10.2527 5.12844
head 0.0599056 -5.14373 1.18878
lclavicle -2.31087e-14 2.51147e-15 1.62145e-31
lhumerus -44.8394 -39.7321 105.441
lradius 59.1296 -0 0
lwrist 17.3202 0 0
lhand -0.125444 9.57486 0.691092
lfingers 7.12502 -0 0
lthumb 25.3778 36.9369 0.365899
rclavicle -2.31087e-14 2.51147e-15 1.62145e-31
rhumerus -20.8981 14.8411 -73.1598
rradius 73.8455 -0 0
rwrist 0.257606 0 0
rhand -27.6362 -26.283 0.568467
rfingers 7.12502 -0 0
rthumb -1.03631 -55.7413 0.562533
347
root 7.61681 16.0987 -19.6672 7.80523 16.2677 1.94814
lfemur -25.1809 23.2598 -12.6058
ltibia 57.0449 -0 0
lfoot -15.7397 7.76782 -0.346664
ltoes -5.77038 0 0
rfemur -38.9734 -5.65644 12.8176
rtibia 49.9059 -0 0
rfoot -3.7358 -9.54961 -1.13799
rtoes 28.1966 -0 0
lowerback 5.3691 -0.26785 -0.851565
upperback 3.28279 -0.365522 -0.279885
thorax 0.424918 -0.18846 0.199561
lowerneck -5.70905 -7.4126 1.97817
upperneck -3.48444 -9.93189 5.01523
head 0.101859 -4.98009 1.15214
lclavicle -2.3059e-14 1.59512e-15 1.64529e-31
lhumerus -44.6023 -39.0364 104.997
lradius 59.0884 -0 0
lwrist 17.4832 0 0
lhand -0.948309 9.33729 0.701334
lfingers 7.12502 -0 0
lthumb 24.5902 36.8057 0.371316
rclavicle -2.3059e-14 1.59512e-15 1.64529e-31
rhumerus -21.598 14.8093 -74.0099
rradius 73.429 -0 0
rwrist 0.555776 0 0
rhand -26.8834 -26.0696 0.576881
rfingers 7.12502 -0 0
rthumb -0.309895 -55.5226 0.570856
348
root 7.56263 16.1159 -19.5255 7.77412 14.9492 1.62701
lfemur -25.8974 23.2718 -12.5291
ltibia 57.9193 -0 0
lfoot -15.5555 7.24541 -0.350024
ltoes -4.90081 0 0
rfemur -38.4785 -5.60004 13.6032
rtibia 49.6072 -0 0
rfoot -4.4523 -9.10671 -1.14907
rtoes 27.7057 -0 0
lowerback 5.35973 -0.21531 -0.697616
upperback 3.25758 -0.290134 -0.213079
thorax 0.403408 -0.149709 0.178197
lowerneck -5.81472 -7.16356 1.9964
upperneck -3.37042 -9.61082 4.90277
head 0.143696 -4.81642 1.11562
lclavicle -2.30093e-14 6.78773e-16 1.66119e-31
lhumerus -44.3743 -38.3394 104.56
lradius 59.0472 -0 0
lwrist 17.6462 0 0
lhand -1.77121 9.0996 0.708163
lfingers 7.12502 -0 0
lthumb 23.8025 36.6743 0.374928
rclavicle -2.30093e-14 6.78773e-16 1.66119e-31
rhumerus -22.2973 14.7675 -74.8594
rradius 73.0126 -0 0
rwrist 0.853945 0 0
rhand -26.1307 -25.8561 0.582491
rfingers 7.12502 -0 0
rthumb 0.416552 -55.3038 0.576405
349
root 7.50845 16.1332 -19.3838 7.75079 13.6306 1.3085
lfemur -26.614 23.2847 -12.4525
ltibia 58.7937 -0 0
lfoot -15.3712 6.72298 -0.351704
ltoes -4.03124 0 0
rfemur -37.9829 -5.55039 14.3891
rtibia 49.3084 -0 0
rfoot -5.16888 -8.66371 -1.15461
rtoes 27.2148 -0 0
lowerback 5.3505 -0.162744 -0.543676
upperback 3.23246 -0.214717 -0.146307
thorax 0.381883 -0.110966 0.156819
lowerneck -5.92026 -6.91449 2.01417
upperneck -3.25713 -9.28952 4.79107
head 0.18542 -4.65273 1.07923
lclavicle -2.29596e-14 -2.37576e-16 1.66914e-31
lhumerus -44.1552 -37.641 104.132
lradius 59.006 -0 0
lwrist 17.8091 0 0
lhand -2.59413 8.86184 0.711578
lfingers 7.12502 -0 0
lthumb 23.0148 36.5429 0.376734
rclavicle -2.29596e-14 -2.37576e-16 1.66914e-31
rhumerus -22.9957 14.7157 -75.7082
rradius 72.5961 -0 0
rwrist 1.15211 0 0
rhand -25.3779 -25.6426 0.585297
rfingers 7.12502 -0 0
rthumb 1.14302 -55.0849 0.57918
350
root 7.45427 16.1504 -19.2421 7.7351 12.3118 0.992222
lfemur -27.3307 23.2984 -12.3762
ltibia 59.6682 -0 0
lfoot -15.1869 6.20056 -0.351704
ltoes -3.16166 0 0
rfemur -37.4867 -5.50752 15.1754
rtibia 49.0097 -0 0
rfoot -5.88547 -8.22067 -1.15461
rtoes 26.724 -0 0
lowerback 5.34142 -0.110153 -0.389745
upperback 3.20743 -0.13927 -0.0795682
thorax 0.360344 -0.0722311 0.135426
lowerneck -6.02567 -6.66539 2.03146
upperneck -3.14459 -8.96802 4.68011
head 0.227029 -4.48901 1.04297
lclavicle -2.291e-14 -1.15392e-15 1.66914e-31
lhumerus -43.9447 -36.9414 103.71
lradius 58.9648 -0 0
lwrist 17.9721 0 0
lhand -3.41707 8.62404 0.711578
lfingers 7.12502 -0 0
lthumb 22.2272 36.4116 0.376734
rclavicle -2.291e-14 -1.15392e-15 1.66914e-31
rhumerus -23.693 14.654 -76.556
rradius 72.1797 -0 0
rwrist 1.45029 0 0
rhand -24.6251 -25.4291 0.585297
rfingers 7.12502 -0 0
rthumb 1.86948 -54.8661 0.57918
351
root 7.4001 16.1677 -19.1004 7.72689 10.993 0.677809
lfemur -28.0474 23.313 -12.3
ltibia 60.5426 -0 0
lfoot -15.0026 5.67813 -0.350024
ltoes -2.29209 0 0
rfemur -36.99 -5.47143 15.962
rtibia 48.7109 -0 0
rfoot -6.60205 -7.77767 -1.14907
rtoes 26.2331 -0 0
lowerback 5.33247 -0.0575387 -0.235823
upperback 3.18248 -0.0637943 -0.0128625
thorax 0.33879 -0.0335042 0.114018
lowerneck -6.13095 -6.41626 2.04828
upperneck -3.03277 -8.64629 4.56988
head 0.268525 -4.32526 1.00684
lclavicle -2.28603e-14 -2.07027e-15 1.66119e-31
lhumerus -43.7425 -36.2405 103.296
lradius 58.9236 -0 0
lwrist 18.135 0 0
lhand -4.23999 8.38628 0.708163
lfingers 7.12502 -0 0
lthumb 21.4395 36.2802 0.374928
rclavicle -2.28603e-14 -2.07027e-15 1.66119e-31
rhumerus -24.3891 14.5822 -77.4027
rradius 71.7632 -0 0
rwrist 1.74845 0 0
rhand -23.8724 -25.2156 0.582491
rfingers 7.12502 -0 0
rthumb 2.59595 -54.6472 0.576405
352
root 7.34593 16.185 -18.9587 7.72606 9.67412 0.364905
lfemur -28.7642 23.3285 -12.224
ltibia 61.417 -0 0
lfoot -14.8184 5.15572 -0.346664
ltoes -1.42252 0 0
rfemur -36.4929 -5.44213 16.7489
rtibia 48.4122 -0 0
rfoot -7.31855 -7.33477 -1.13799
rtoes 25.7422 -0 0
lowerback 5.32367 -0.0049003 -0.0819091
upperback 3.15763 0.0117101 0.0538102
thorax 0.317222 0.0052146 0.0925963
lowerneck -6.2361 -6.16709 2.06464
upperneck -2.92168 -8.32436 4.46039
head 0.309909 -4.16149 0.97083
lclavicle -2.28106e-14 -2.98662e-15 1.64529e-31
lhumerus -43.5482 -35.5386 102.888
lradius 58.8824 -0 0
lwrist 18.298 0 0
lhand -5.06289 8.14859 0.701334
lfingers 7.12502 -0 0
lthumb 20.6518 36.1488 0.371316
rclavicle -2.28106e-14 -2.98662e-15 1.64529e-31
rhumerus -25.0838 14.5005 -78.2481
rradius 71.3468 -0 0
rwrist 2.04662 0 0
rhand -23.1196 -25.0021 0.576881
rfingers 7.12502 -0 0
rthumb 3.32239 -54.4284 0.570856
